<svg viewBox="0 0 1280 285" xmlns="http://www.w3.org/2000/svg" width="1280" height="285">
  <defs>

    <radialGradient id="bg" cx="50%" cy="50%" r="70%">
      <stop offset="0%"   stop-color="#080810"/>
      <stop offset="100%" stop-color="#020204"/>
    </radialGradient>

    <radialGradient id="ringHalo" cx="50%" cy="50%" r="50%">
      <stop offset="0%"   stop-color="#b8c8e8" stop-opacity="0.07"/>
      <stop offset="100%" stop-color="#b8c8e8" stop-opacity="0"/>
    </radialGradient>

    <filter id="glow" x="-40%" y="-40%" width="180%" height="180%">
      <feGaussianBlur stdDeviation="6" result="b"/>
      <feMerge><feMergeNode in="b"/><feMergeNode in="SourceGraphic"/></feMerge>
    </filter>

    <filter id="softGlow" x="-60%" y="-60%" width="220%" height="220%">
      <feGaussianBlur stdDeviation="14" result="b"/>
      <feMerge><feMergeNode in="b"/><feMergeNode in="b"/><feMergeNode in="SourceGraphic"/></feMerge>
    </filter>

    <filter id="titleGlow" x="-5%" y="-20%" width="110%" height="140%">
      <feGaussianBlur stdDeviation="4" result="b"/>
      <feMerge><feMergeNode in="b"/><feMergeNode in="SourceGraphic"/></feMerge>
    </filter>

    <filter id="starFilter" x="-200%" y="-200%" width="500%" height="500%">
      <feGaussianBlur stdDeviation="0.8"/>
    </filter>

    <linearGradient id="bottomFade" x1="0" y1="0" x2="0" y2="1">
      <stop offset="82%"  stop-color="transparent"/>
      <stop offset="100%" stop-color="#020204" stop-opacity="0.7"/>
    </linearGradient>

    <linearGradient id="topFade" x1="0" y1="0" x2="0" y2="1">
      <stop offset="0%"  stop-color="#020204" stop-opacity="0.4"/>
      <stop offset="20%" stop-color="transparent"/>
    </linearGradient>

    <style>
      @keyframes tw1 { 0%,100%{opacity:.85} 50%{opacity:.15} }
      @keyframes tw2 { 0%,100%{opacity:.2}  50%{opacity:.9}  }
      @keyframes tw3 { 0%,33%{opacity:.7} 66%{opacity:.08} 100%{opacity:.7} }
      @keyframes tw4 { 0%,100%{opacity:.5} 40%{opacity:.95} 80%{opacity:.1} }
      @keyframes pulse { 0%,100%{opacity:.6} 50%{opacity:.9} }
      @keyframes orbit1 {
        from { transform: rotate(0deg)   translateX(308px) rotate(0deg); }
        to   { transform: rotate(360deg) translateX(308px) rotate(-360deg); }
      }
      @keyframes orbit2 {
        from { transform: rotate(180deg) translateX(308px) rotate(-180deg); }
        to   { transform: rotate(540deg) translateX(308px) rotate(-540deg); }
      }
      @keyframes orbit3 {
        from { transform: rotate(90deg)  translateX(308px) rotate(-90deg); }
        to   { transform: rotate(450deg) translateX(308px) rotate(-450deg); }
      }
      @keyframes float {
        0%,100% { transform: translateY(0); }
        50%      { transform: translateY(-3px); }
      }
      @keyframes drift1 {
        0%   { transform: translate(0px, 0px);   opacity: .75; }
        25%  { transform: translate(4px, -5px);  opacity: .95; }
        50%  { transform: translate(7px, -2px);  opacity: .6;  }
        75%  { transform: translate(3px, -7px);  opacity: .9;  }
        100% { transform: translate(0px, 0px);   opacity: .75; }
      }
      @keyframes drift2 {
        0%   { transform: translate(0px, 0px);   opacity: .5;  }
        25%  { transform: translate(-5px, -4px); opacity: .85; }
        50%  { transform: translate(-3px, -8px); opacity: .65; }
        75%  { transform: translate(-6px, -3px); opacity: .9;  }
        100% { transform: translate(0px, 0px);   opacity: .5;  }
      }
      @keyframes drift3 {
        0%   { transform: translate(0px, 0px);   opacity: .6;  }
        33%  { transform: translate(5px, -6px);  opacity: .9;  }
        66%  { transform: translate(-3px, -4px); opacity: .4;  }
        100% { transform: translate(0px, 0px);   opacity: .6;  }
      }
      @keyframes drift4 {
        0%   { transform: translate(0px, 0px);   opacity: .8;  }
        50%  { transform: translate(-6px, -5px); opacity: .3;  }
        100% { transform: translate(0px, 0px);   opacity: .8;  }
      }
    </style>

  </defs>

  <!-- Background -->
  <rect width="1280" height="285" fill="url(#bg)"/>

  <!-- ── STATIC STARS ── -->
  <!-- ultra-fine background field -->
  <g fill="white">
    <!-- row 1 -->
    <circle cx="18"   cy="22"  r="0.45" opacity=".35"/>
    <circle cx="55"   cy="8"   r="0.5"  opacity=".4"/>
    <circle cx="98"   cy="31"  r="0.4"  opacity=".3"/>
    <circle cx="142"  cy="14"  r="0.55" opacity=".45"/>
    <circle cx="188"  cy="42"  r="0.4"  opacity=".3"/>
    <circle cx="234"  cy="9"   r="0.5"  opacity=".4"/>
    <circle cx="278"  cy="28"  r="0.45" opacity=".35"/>
    <circle cx="322"  cy="48"  r="0.4"  opacity=".3"/>
    <circle cx="368"  cy="16"  r="0.55" opacity=".45"/>
    <circle cx="412"  cy="38"  r="0.4"  opacity=".3"/>
    <circle cx="456"  cy="11"  r="0.5"  opacity=".4"/>
    <circle cx="502"  cy="44"  r="0.45" opacity=".35"/>
    <circle cx="548"  cy="22"  r="0.4"  opacity=".3"/>
    <!-- skip center band -->
    <circle cx="730"  cy="19"  r="0.45" opacity=".35"/>
    <circle cx="776"  cy="40"  r="0.4"  opacity=".3"/>
    <circle cx="822"  cy="12"  r="0.55" opacity=".45"/>
    <circle cx="868"  cy="35"  r="0.4"  opacity=".3"/>
    <circle cx="914"  cy="8"   r="0.5"  opacity=".4"/>
    <circle cx="960"  cy="46"  r="0.45" opacity=".35"/>
    <circle cx="1006" cy="18"  r="0.4"  opacity=".3"/>
    <circle cx="1052" cy="38"  r="0.55" opacity=".45"/>
    <circle cx="1098" cy="10"  r="0.4"  opacity=".3"/>
    <circle cx="1144" cy="42"  r="0.5"  opacity=".4"/>
    <circle cx="1190" cy="24"  r="0.45" opacity=".35"/>
    <circle cx="1236" cy="50"  r="0.4"  opacity=".3"/>
    <circle cx="1268" cy="15"  r="0.5"  opacity=".4"/>
    <!-- row 2 -->
    <circle cx="30"   cy="78"  r="0.5"  opacity=".4"/>
    <circle cx="72"   cy="62"  r="0.4"  opacity=".3"/>
    <circle cx="115"  cy="88"  r="0.55" opacity=".45"/>
    <circle cx="160"  cy="70"  r="0.4"  opacity=".3"/>
    <circle cx="205"  cy="95"  r="0.5"  opacity=".4"/>
    <circle cx="248"  cy="66"  r="0.45" opacity=".35"/>
    <circle cx="292"  cy="84"  r="0.4"  opacity=".3"/>
    <circle cx="336"  cy="72"  r="0.55" opacity=".45"/>
    <circle cx="382"  cy="90"  r="0.4"  opacity=".3"/>
    <circle cx="428"  cy="60"  r="0.5"  opacity=".4"/>
    <circle cx="472"  cy="82"  r="0.45" opacity=".35"/>
    <circle cx="518"  cy="68"  r="0.4"  opacity=".3"/>
    <!-- skip center -->
    <circle cx="760"  cy="75"  r="0.5"  opacity=".4"/>
    <circle cx="806"  cy="58"  r="0.4"  opacity=".3"/>
    <circle cx="852"  cy="86"  r="0.55" opacity=".45"/>
    <circle cx="896"  cy="68"  r="0.4"  opacity=".3"/>
    <circle cx="942"  cy="92"  r="0.5"  opacity=".4"/>
    <circle cx="988"  cy="62"  r="0.45" opacity=".35"/>
    <circle cx="1034" cy="80"  r="0.4"  opacity=".3"/>
    <circle cx="1080" cy="70"  r="0.55" opacity=".45"/>
    <circle cx="1126" cy="88"  r="0.4"  opacity=".3"/>
    <circle cx="1172" cy="60"  r="0.5"  opacity=".4"/>
    <circle cx="1218" cy="78"  r="0.45" opacity=".35"/>
    <circle cx="1260" cy="92"  r="0.4"  opacity=".3"/>
    <!-- row 3 - left flank -->
    <circle cx="12"   cy="138" r="0.5"  opacity=".4"/>
    <circle cx="48"   cy="155" r="0.4"  opacity=".3"/>
    <circle cx="88"   cy="128" r="0.55" opacity=".45"/>
    <circle cx="128"  cy="162" r="0.4"  opacity=".3"/>
    <circle cx="168"  cy="135" r="0.5"  opacity=".4"/>
    <circle cx="210"  cy="152" r="0.45" opacity=".35"/>
    <circle cx="252"  cy="126" r="0.4"  opacity=".3"/>
    <circle cx="295"  cy="158" r="0.5"  opacity=".4"/>
    <circle cx="338"  cy="138" r="0.4"  opacity=".3"/>
    <circle cx="378"  cy="165" r="0.45" opacity=".35"/>
    <circle cx="418"  cy="132" r="0.55" opacity=".45"/>
    <!-- row 3 - right flank -->
    <circle cx="862"  cy="142" r="0.5"  opacity=".4"/>
    <circle cx="902"  cy="162" r="0.4"  opacity=".3"/>
    <circle cx="944"  cy="128" r="0.55" opacity=".45"/>
    <circle cx="986"  cy="155" r="0.4"  opacity=".3"/>
    <circle cx="1028" cy="136" r="0.5"  opacity=".4"/>
    <circle cx="1068" cy="160" r="0.45" opacity=".35"/>
    <circle cx="1110" cy="130" r="0.4"  opacity=".3"/>
    <circle cx="1152" cy="158" r="0.5"  opacity=".4"/>
    <circle cx="1194" cy="140" r="0.4"  opacity=".3"/>
    <circle cx="1236" cy="162" r="0.45" opacity=".35"/>
    <circle cx="1272" cy="132" r="0.55" opacity=".45"/>
    <!-- bottom rows -->
    <circle cx="22"   cy="285" r="0.5"  opacity=".4"/>
    <circle cx="65"   cy="305" r="0.4"  opacity=".3"/>
    <circle cx="108"  cy="278" r="0.55" opacity=".45"/>
    <circle cx="152"  cy="318" r="0.4"  opacity=".3"/>
    <circle cx="195"  cy="292" r="0.5"  opacity=".4"/>
    <circle cx="238"  cy="310" r="0.45" opacity=".35"/>
    <circle cx="280"  cy="282" r="0.4"  opacity=".3"/>
    <circle cx="325"  cy="322" r="0.5"  opacity=".4"/>
    <circle cx="368"  cy="298" r="0.4"  opacity=".3"/>
    <circle cx="412"  cy="316" r="0.45" opacity=".35"/>
    <circle cx="454"  cy="288" r="0.55" opacity=".45"/>
    <circle cx="498"  cy="308" r="0.4"  opacity=".3"/>
    <circle cx="540"  cy="275" r="0.5"  opacity=".4"/>
    <circle cx="580"  cy="320" r="0.4"  opacity=".3"/>
    <circle cx="700"  cy="275" r="0.5"  opacity=".4"/>
    <circle cx="742"  cy="315" r="0.4"  opacity=".3"/>
    <circle cx="785"  cy="290" r="0.55" opacity=".45"/>
    <circle cx="828"  cy="308" r="0.4"  opacity=".3"/>
    <circle cx="872"  cy="278" r="0.5"  opacity=".4"/>
    <circle cx="915"  cy="312" r="0.45" opacity=".35"/>
    <circle cx="958"  cy="285" r="0.4"  opacity=".3"/>
    <circle cx="1001" cy="318" r="0.5"  opacity=".4"/>
    <circle cx="1044" cy="295" r="0.4"  opacity=".3"/>
    <circle cx="1088" cy="310" r="0.45" opacity=".35"/>
    <circle cx="1132" cy="280" r="0.55" opacity=".45"/>
    <circle cx="1175" cy="305" r="0.4"  opacity=".3"/>
    <circle cx="1218" cy="288" r="0.5"  opacity=".4"/>
    <circle cx="1258" cy="315" r="0.4"  opacity=".3"/>
    <!-- bottom edge -->
    <circle cx="40"   cy="342" r="0.45" opacity=".3"/>
    <circle cx="120"  cy="352" r="0.4"  opacity=".25"/>
    <circle cx="210"  cy="348" r="0.5"  opacity=".3"/>
    <circle cx="310"  cy="355" r="0.4"  opacity=".25"/>
    <circle cx="420"  cy="345" r="0.45" opacity=".3"/>
    <circle cx="1050" cy="348" r="0.45" opacity=".3"/>
    <circle cx="1140" cy="355" r="0.4"  opacity=".25"/>
    <circle cx="1230" cy="345" r="0.5"  opacity=".3"/>
    <!-- edge verticals -->
    <circle cx="5"    cy="200" r="0.5"  opacity=".35"/>
    <circle cx="1275" cy="200" r="0.5"  opacity=".35"/>
    <circle cx="5"    cy="250" r="0.4"  opacity=".3"/>
    <circle cx="1275" cy="250" r="0.4"  opacity=".3"/>
  </g>

  <!-- ── ANIMATED TWINKLING STARS (larger, brighter) ── -->
  <circle cx="38"   cy="55"  r="1.1" fill="white" style="animation:tw1 3.2s ease-in-out infinite; animation-delay:.0s"/>
  <circle cx="82"   cy="18"  r="0.9" fill="white" style="animation:tw2 4.5s ease-in-out infinite; animation-delay:.6s"/>
  <circle cx="130"  cy="48"  r="1.2" fill="white" style="animation:tw3 2.9s ease-in-out infinite; animation-delay:1.2s"/>
  <circle cx="178"  cy="22"  r="0.9" fill="white" style="animation:tw4 5.1s ease-in-out infinite; animation-delay:.3s"/>
  <circle cx="224"  cy="58"  r="1.0" fill="white" style="animation:tw1 3.8s ease-in-out infinite; animation-delay:1.9s"/>
  <circle cx="270"  cy="12"  r="1.1" fill="white" style="animation:tw2 4.2s ease-in-out infinite; animation-delay:.8s"/>
  <circle cx="315"  cy="40"  r="0.9" fill="white" style="animation:tw3 3.5s ease-in-out infinite; animation-delay:2.3s"/>
  <circle cx="360"  cy="62"  r="1.2" fill="white" style="animation:tw4 4.0s ease-in-out infinite; animation-delay:.5s"/>
  <circle cx="408"  cy="25"  r="1.0" fill="white" style="animation:tw1 2.7s ease-in-out infinite; animation-delay:1.6s"/>
  <circle cx="452"  cy="50"  r="0.9" fill="white" style="animation:tw2 5.3s ease-in-out infinite; animation-delay:.2s"/>
  <circle cx="498"  cy="15"  r="1.1" fill="white" style="animation:tw3 3.1s ease-in-out infinite; animation-delay:2.0s"/>
  <circle cx="540"  cy="44"  r="1.0" fill="white" style="animation:tw4 4.7s ease-in-out infinite; animation-delay:.9s"/>
  <!-- left mid -->
  <circle cx="25"   cy="110" r="1.0" fill="white" style="animation:tw1 4.1s ease-in-out infinite; animation-delay:1.4s"/>
  <circle cx="68"   cy="130" r="0.9" fill="white" style="animation:tw2 3.3s ease-in-out infinite; animation-delay:.7s"/>
  <circle cx="112"  cy="105" r="1.2" fill="white" style="animation:tw3 4.9s ease-in-out infinite; animation-delay:2.2s"/>
  <circle cx="155"  cy="125" r="1.0" fill="white" style="animation:tw4 2.8s ease-in-out infinite; animation-delay:.4s"/>
  <circle cx="200"  cy="108" r="0.9" fill="white" style="animation:tw1 3.6s ease-in-out infinite; animation-delay:1.8s"/>
  <circle cx="245"  cy="128" r="1.1" fill="white" style="animation:tw2 4.4s ease-in-out infinite; animation-delay:.1s"/>
  <circle cx="290"  cy="112" r="1.0" fill="white" style="animation:tw3 3.0s ease-in-out infinite; animation-delay:2.5s"/>
  <circle cx="335"  cy="132" r="0.9" fill="white" style="animation:tw4 5.0s ease-in-out infinite; animation-delay:.6s"/>
  <circle cx="378"  cy="110" r="1.2" fill="white" style="animation:tw1 3.4s ease-in-out infinite; animation-delay:1.1s"/>
  <circle cx="422"  cy="130" r="1.0" fill="white" style="animation:tw2 4.8s ease-in-out infinite; animation-delay:.3s"/>
  <!-- right top -->
  <circle cx="740"  cy="30"  r="1.1" fill="white" style="animation:tw3 3.7s ease-in-out infinite; animation-delay:1.5s"/>
  <circle cx="785"  cy="55"  r="0.9" fill="white" style="animation:tw4 4.3s ease-in-out infinite; animation-delay:.0s"/>
  <circle cx="830"  cy="18"  r="1.2" fill="white" style="animation:tw1 2.8s ease-in-out infinite; animation-delay:2.1s"/>
  <circle cx="875"  cy="48"  r="1.0" fill="white" style="animation:tw2 5.2s ease-in-out infinite; animation-delay:.8s"/>
  <circle cx="920"  cy="22"  r="0.9" fill="white" style="animation:tw3 3.3s ease-in-out infinite; animation-delay:1.7s"/>
  <circle cx="965"  cy="52"  r="1.1" fill="white" style="animation:tw4 4.1s ease-in-out infinite; animation-delay:.4s"/>
  <circle cx="1010" cy="28"  r="1.0" fill="white" style="animation:tw1 3.9s ease-in-out infinite; animation-delay:2.4s"/>
  <circle cx="1055" cy="55"  r="0.9" fill="white" style="animation:tw2 2.6s ease-in-out infinite; animation-delay:.9s"/>
  <circle cx="1100" cy="22"  r="1.2" fill="white" style="animation:tw3 4.6s ease-in-out infinite; animation-delay:1.3s"/>
  <circle cx="1145" cy="48"  r="1.0" fill="white" style="animation:tw4 3.2s ease-in-out infinite; animation-delay:.1s"/>
  <circle cx="1190" cy="18"  r="0.9" fill="white" style="animation:tw1 4.8s ease-in-out infinite; animation-delay:2.0s"/>
  <circle cx="1238" cy="40"  r="1.1" fill="white" style="animation:tw2 3.5s ease-in-out infinite; animation-delay:.5s"/>
  <!-- right mid -->
  <circle cx="755"  cy="108" r="1.0" fill="white" style="animation:tw3 4.2s ease-in-out infinite; animation-delay:1.0s"/>
  <circle cx="800"  cy="130" r="0.9" fill="white" style="animation:tw4 3.1s ease-in-out infinite; animation-delay:.7s"/>
  <circle cx="845"  cy="112" r="1.2" fill="white" style="animation:tw1 5.0s ease-in-out infinite; animation-delay:2.3s"/>
  <circle cx="890"  cy="128" r="1.0" fill="white" style="animation:tw2 3.6s ease-in-out infinite; animation-delay:.2s"/>
  <circle cx="935"  cy="108" r="0.9" fill="white" style="animation:tw3 4.4s ease-in-out infinite; animation-delay:1.8s"/>
  <circle cx="980"  cy="125" r="1.1" fill="white" style="animation:tw4 2.9s ease-in-out infinite; animation-delay:.6s"/>
  <circle cx="1025" cy="110" r="1.0" fill="white" style="animation:tw1 4.7s ease-in-out infinite; animation-delay:2.1s"/>
  <circle cx="1070" cy="130" r="0.9" fill="white" style="animation:tw2 3.3s ease-in-out infinite; animation-delay:.4s"/>
  <circle cx="1115" cy="108" r="1.2" fill="white" style="animation:tw3 5.1s ease-in-out infinite; animation-delay:1.5s"/>
  <circle cx="1160" cy="125" r="1.0" fill="white" style="animation:tw4 2.7s ease-in-out infinite; animation-delay:.8s"/>
  <circle cx="1205" cy="112" r="0.9" fill="white" style="animation:tw1 4.0s ease-in-out infinite; animation-delay:2.5s"/>
  <circle cx="1250" cy="128" r="1.1" fill="white" style="animation:tw2 3.8s ease-in-out infinite; animation-delay:.3s"/>
  <!-- bottom twinkling -->
  <circle cx="35"   cy="295" r="1.0" fill="white" style="animation:tw3 4.3s ease-in-out infinite; animation-delay:1.2s"/>
  <circle cx="78"   cy="275" r="0.9" fill="white" style="animation:tw4 3.0s ease-in-out infinite; animation-delay:.5s"/>
  <circle cx="122"  cy="300" r="1.1" fill="white" style="animation:tw1 4.9s ease-in-out infinite; animation-delay:2.0s"/>
  <circle cx="168"  cy="278" r="1.0" fill="white" style="animation:tw2 3.5s ease-in-out infinite; animation-delay:.8s"/>
  <circle cx="215"  cy="296" r="0.9" fill="white" style="animation:tw3 2.8s ease-in-out infinite; animation-delay:1.6s"/>
  <circle cx="260"  cy="272" r="1.2" fill="white" style="animation:tw4 4.6s ease-in-out infinite; animation-delay:.1s"/>
  <circle cx="305"  cy="298" r="1.0" fill="white" style="animation:tw1 3.3s ease-in-out infinite; animation-delay:2.3s"/>
  <circle cx="352"  cy="278" r="0.9" fill="white" style="animation:tw2 5.0s ease-in-out infinite; animation-delay:.6s"/>
  <circle cx="398"  cy="295" r="1.1" fill="white" style="animation:tw3 3.7s ease-in-out infinite; animation-delay:1.4s"/>
  <circle cx="443"  cy="275" r="1.0" fill="white" style="animation:tw4 4.2s ease-in-out infinite; animation-delay:.3s"/>
  <circle cx="490"  cy="298" r="0.9" fill="white" style="animation:tw1 2.9s ease-in-out infinite; animation-delay:2.1s"/>
  <circle cx="535"  cy="278" r="1.2" fill="white" style="animation:tw2 4.7s ease-in-out infinite; animation-delay:.7s"/>
  <circle cx="705"  cy="295" r="1.0" fill="white" style="animation:tw3 3.2s ease-in-out infinite; animation-delay:1.8s"/>
  <circle cx="750"  cy="275" r="0.9" fill="white" style="animation:tw4 4.5s ease-in-out infinite; animation-delay:.2s"/>
  <circle cx="796"  cy="298" r="1.1" fill="white" style="animation:tw1 3.0s ease-in-out infinite; animation-delay:2.4s"/>
  <circle cx="842"  cy="278" r="1.0" fill="white" style="animation:tw2 4.8s ease-in-out infinite; animation-delay:.5s"/>
  <circle cx="888"  cy="295" r="0.9" fill="white" style="animation:tw3 3.6s ease-in-out infinite; animation-delay:1.1s"/>
  <circle cx="934"  cy="275" r="1.2" fill="white" style="animation:tw4 2.7s ease-in-out infinite; animation-delay:.9s"/>
  <circle cx="980"  cy="298" r="1.0" fill="white" style="animation:tw1 4.4s ease-in-out infinite; animation-delay:2.2s"/>
  <circle cx="1026" cy="278" r="0.9" fill="white" style="animation:tw2 3.1s ease-in-out infinite; animation-delay:.4s"/>
  <circle cx="1072" cy="295" r="1.1" fill="white" style="animation:tw3 5.2s ease-in-out infinite; animation-delay:1.7s"/>
  <circle cx="1118" cy="275" r="1.0" fill="white" style="animation:tw4 3.9s ease-in-out infinite; animation-delay:.0s"/>
  <circle cx="1164" cy="298" r="0.9" fill="white" style="animation:tw1 4.3s ease-in-out infinite; animation-delay:2.5s"/>
  <circle cx="1210" cy="278" r="1.2" fill="white" style="animation:tw2 2.8s ease-in-out infinite; animation-delay:.6s"/>
  <circle cx="1255" cy="295" r="1.0" fill="white" style="animation:tw3 4.1s ease-in-out infinite; animation-delay:1.3s"/>

  <!-- subtle radial glow behind text -->
  <radialGradient id="textBg" cx="50%" cy="50%" r="35%">
    <stop offset="0%"   stop-color="white" stop-opacity="0.04"/>
    <stop offset="100%" stop-color="white" stop-opacity="0"/>
  </radialGradient>
  <ellipse cx="640" cy="195" rx="480" ry="70" fill="url(#textBg)"/>

  <!-- thin centered divider line under tagline -->
  <linearGradient id="lineGrad" x1="0" y1="0" x2="1" y2="0">
    <stop offset="0%"   stop-color="white" stop-opacity="0"/>
    <stop offset="30%"  stop-color="white" stop-opacity="0.22"/>
    <stop offset="50%"  stop-color="white" stop-opacity="0.32"/>
    <stop offset="70%"  stop-color="white" stop-opacity="0.22"/>
    <stop offset="100%" stop-color="white" stop-opacity="0"/>
  </linearGradient>
  <line x1="280" y1="250" x2="1000" y2="250" stroke="url(#lineGrad)" stroke-width="0.6"/>


  <!-- ── DRIFTING PARTICLES — visibly animated, spread across field ── -->
  <!-- left side drifters -->
  <circle cx="58"   cy="72"  r="1.4" fill="white" style="animation:drift1 8.2s ease-in-out infinite; animation-delay:0s"/>
  <circle cx="105"  cy="42"  r="1.2" fill="white" style="animation:drift2 9.5s ease-in-out infinite; animation-delay:1.1s"/>
  <circle cx="152"  cy="92"  r="1.5" fill="white" style="animation:drift3 7.8s ease-in-out infinite; animation-delay:2.3s"/>
  <circle cx="198"  cy="52"  r="1.1" fill="white" style="animation:drift4 11.0s ease-in-out infinite; animation-delay:0.6s"/>
  <circle cx="248"  cy="80"  r="1.3" fill="white" style="animation:drift1 9.0s ease-in-out infinite; animation-delay:3.1s"/>
  <circle cx="295"  cy="48"  r="1.4" fill="white" style="animation:drift2 8.5s ease-in-out infinite; animation-delay:1.8s"/>
  <circle cx="345"  cy="78"  r="1.2" fill="white" style="animation:drift3 10.2s ease-in-out infinite; animation-delay:0.4s"/>
  <circle cx="392"  cy="45"  r="1.5" fill="white" style="animation:drift4 7.5s ease-in-out infinite; animation-delay:2.7s"/>
  <circle cx="438"  cy="82"  r="1.1" fill="white" style="animation:drift1 9.8s ease-in-out infinite; animation-delay:1.5s"/>
  <circle cx="485"  cy="55"  r="1.3" fill="white" style="animation:drift2 8.0s ease-in-out infinite; animation-delay:3.5s"/>
  <circle cx="532"  cy="78"  r="1.4" fill="white" style="animation:drift3 11.5s ease-in-out infinite; animation-delay:0.9s"/>
  <!-- left lower -->
  <circle cx="42"   cy="240" r="1.3" fill="white" style="animation:drift2 8.8s ease-in-out infinite; animation-delay:2.0s"/>
  <circle cx="90"   cy="265" r="1.5" fill="white" style="animation:drift1 10.5s ease-in-out infinite; animation-delay:0.3s"/>
  <circle cx="138"  cy="242" r="1.1" fill="white" style="animation:drift4 7.9s ease-in-out infinite; animation-delay:3.2s"/>
  <circle cx="185"  cy="268" r="1.4" fill="white" style="animation:drift3 9.2s ease-in-out infinite; animation-delay:1.4s"/>
  <circle cx="232"  cy="245" r="1.2" fill="white" style="animation:drift1 8.3s ease-in-out infinite; animation-delay:2.6s"/>
  <circle cx="280"  cy="270" r="1.5" fill="white" style="animation:drift2 10.8s ease-in-out infinite; animation-delay:0.7s"/>
  <circle cx="328"  cy="248" r="1.3" fill="white" style="animation:drift3 7.6s ease-in-out infinite; animation-delay:3.8s"/>
  <circle cx="375"  cy="265" r="1.1" fill="white" style="animation:drift4 9.4s ease-in-out infinite; animation-delay:1.0s"/>
  <circle cx="422"  cy="245" r="1.4" fill="white" style="animation:drift1 8.7s ease-in-out infinite; animation-delay:2.4s"/>
  <circle cx="470"  cy="268" r="1.2" fill="white" style="animation:drift2 11.2s ease-in-out infinite; animation-delay:0.5s"/>
  <circle cx="518"  cy="248" r="1.5" fill="white" style="animation:drift3 9.7s ease-in-out infinite; animation-delay:3.0s"/>
  <!-- right side drifters -->
  <circle cx="748"  cy="68"  r="1.4" fill="white" style="animation:drift4 8.4s ease-in-out infinite; animation-delay:1.7s"/>
  <circle cx="795"  cy="42"  r="1.2" fill="white" style="animation:drift1 9.9s ease-in-out infinite; animation-delay:0.2s"/>
  <circle cx="842"  cy="78"  r="1.5" fill="white" style="animation:drift2 7.7s ease-in-out infinite; animation-delay:2.9s"/>
  <circle cx="888"  cy="48"  r="1.1" fill="white" style="animation:drift3 10.6s ease-in-out infinite; animation-delay:1.3s"/>
  <circle cx="935"  cy="75"  r="1.3" fill="white" style="animation:drift4 8.1s ease-in-out infinite; animation-delay:3.6s"/>
  <circle cx="982"  cy="45"  r="1.4" fill="white" style="animation:drift1 9.3s ease-in-out infinite; animation-delay:0.8s"/>
  <circle cx="1028" cy="78"  r="1.2" fill="white" style="animation:drift2 11.4s ease-in-out infinite; animation-delay:2.2s"/>
  <circle cx="1075" cy="48"  r="1.5" fill="white" style="animation:drift3 7.4s ease-in-out infinite; animation-delay:1.6s"/>
  <circle cx="1122" cy="75"  r="1.1" fill="white" style="animation:drift4 9.6s ease-in-out infinite; animation-delay:3.4s"/>
  <circle cx="1168" cy="45"  r="1.3" fill="white" style="animation:drift1 8.6s ease-in-out infinite; animation-delay:0.1s"/>
  <circle cx="1215" cy="75"  r="1.4" fill="white" style="animation:drift2 10.3s ease-in-out infinite; animation-delay:2.8s"/>
  <circle cx="1258" cy="48"  r="1.2" fill="white" style="animation:drift3 8.9s ease-in-out infinite; animation-delay:1.2s"/>
  <!-- right lower -->
  <circle cx="762"  cy="240" r="1.5" fill="white" style="animation:drift4 9.1s ease-in-out infinite; animation-delay:3.3s"/>
  <circle cx="808"  cy="265" r="1.1" fill="white" style="animation:drift1 7.8s ease-in-out infinite; animation-delay:0.6s"/>
  <circle cx="855"  cy="245" r="1.3" fill="white" style="animation:drift2 10.7s ease-in-out infinite; animation-delay:2.1s"/>
  <circle cx="902"  cy="268" r="1.4" fill="white" style="animation:drift3 8.2s ease-in-out infinite; animation-delay:1.9s"/>
  <circle cx="948"  cy="242" r="1.2" fill="white" style="animation:drift4 9.8s ease-in-out infinite; animation-delay:3.7s"/>
  <circle cx="995"  cy="265" r="1.5" fill="white" style="animation:drift1 7.3s ease-in-out infinite; animation-delay:0.4s"/>
  <circle cx="1042" cy="248" r="1.1" fill="white" style="animation:drift2 11.1s ease-in-out infinite; animation-delay:2.5s"/>
  <circle cx="1088" cy="268" r="1.3" fill="white" style="animation:drift3 8.5s ease-in-out infinite; animation-delay:1.0s"/>
  <circle cx="1135" cy="245" r="1.4" fill="white" style="animation:drift4 9.5s ease-in-out infinite; animation-delay:3.9s"/>
  <circle cx="1182" cy="268" r="1.2" fill="white" style="animation:drift1 8.0s ease-in-out infinite; animation-delay:1.3s"/>
  <circle cx="1228" cy="248" r="1.5" fill="white" style="animation:drift2 10.4s ease-in-out infinite; animation-delay:2.6s"/>
  <circle cx="1262" cy="265" r="1.1" fill="white" style="animation:drift3 7.6s ease-in-out infinite; animation-delay:0.8s"/>

  <!-- ── TITLE ── -->
  <text x="640" y="188"
    font-family="'Trebuchet MS', 'Gill Sans', 'Optima', sans-serif"
    font-size="82"
    font-weight="700"
    letter-spacing="14"
    fill="white"
    text-anchor="middle"
    opacity="0.97"
    filter="url(#titleGlow)"
    style="animation:float 7s ease-in-out infinite">
    STUDENT CONNECT
  </text>

  <!-- ── TAGLINE ── -->
  <text x="640" y="226"
    font-family="'Trebuchet MS', 'Gill Sans', 'Optima', sans-serif"
    font-size="14"
    font-weight="400"
    letter-spacing="5"
    fill="rgba(168,178,200,0.88)"
    text-anchor="middle"
    style="animation:float 7s ease-in-out infinite; animation-delay:.4s">
    AUTOMATE YOUR ACADEMIC WORKFLOW — SEAMLESSLY
  </text>

  <!-- Edge fades -->
  <rect width="1280" height="285" fill="url(#topFade)"/>
  <rect width="1280" height="285" fill="url(#bottomFade)"/>

</svg>
